<?xml version="1.0" encoding="UTF-8" standalone="no"?>
<!-- Created with Inkscape (http://www.inkscape.org/) -->

<svg
   xmlns:dc="http://purl.org/dc/elements/1.1/"
   xmlns:cc="http://creativecommons.org/ns#"
   xmlns:rdf="http://www.w3.org/1999/02/22-rdf-syntax-ns#"
   xmlns:svg="http://www.w3.org/2000/svg"
   xmlns="http://www.w3.org/2000/svg"
   xmlns:sodipodi="http://sodipodi.sourceforge.net/DTD/sodipodi-0.dtd"
   xmlns:inkscape="http://www.inkscape.org/namespaces/inkscape"
   width="1000"
   height="886.72083"
   id="svg2"
   version="1.1"
   inkscape:version="0.48.2 r9819"
   sodipodi:docname="New document 1">
  <defs
     id="defs4" />
  <sodipodi:namedview
     id="base"
     pagecolor="#ffffff"
     bordercolor="#666666"
     borderopacity="1.0"
     inkscape:pageopacity="0.0"
     inkscape:pageshadow="2"
     inkscape:zoom="0.250625"
     inkscape:cx="1396.057"
     inkscape:cy="147.97354"
     inkscape:document-units="px"
     inkscape:current-layer="layer1"
     showgrid="false"
     fit-margin-left="0.5"
     fit-margin-bottom="0.5"
     fit-margin-top="0.5"
     fit-margin-right="0.5"
     inkscape:window-width="1059"
     inkscape:window-height="1042"
     inkscape:window-x="853"
     inkscape:window-y="-21"
     inkscape:window-maximized="0">
    <inkscape:grid
       type="xygrid"
       id="grid2996"
       empspacing="5"
       visible="true"
       enabled="true"
       snapvisiblegridlinesonly="true" />
  </sodipodi:namedview>
  <metadata
     id="metadata7">
    <rdf:RDF>
      <cc:Work
         rdf:about="">
        <dc:format>image/svg+xml</dc:format>
        <dc:type
           rdf:resource="http://purl.org/dc/dcmitype/StillImage" />
        <dc:title></dc:title>
      </cc:Work>
    </rdf:RDF>
  </metadata>
  <g
     inkscape:label="Layer 1"
     inkscape:groupmode="layer"
     id="layer1"
     transform="translate(760.5,-872.99918)">
    <path
       style="fill:#3c1c00;fill-opacity:1;stroke:none"
       d="m -759.1675,1542.8345 0,210.6225 76.17375,0 c 52.61569,0 105.2202,-42.9396 105.2202,-104.947 0,-58.3006 -46.54771,-105.6755 -108.96645,-105.6755 l -72.4275,0 z m 52.4475,44.5388 16.23375,0 c 30.60506,0 60.35625,25.668 60.35625,60.7725 0,34.4808 -28.62531,60.7725 -60.7725,60.7725 l -15.8175,0 0,-121.545 z"
       id="path2998"
       inkscape:connector-curvature="0" />
    <path
       style="fill:#3c1c00;fill-opacity:1;stroke:none"
       d="m -450.9734,1537.9176 c -63.02099,0 -112.56961,50.1038 -112.56961,110.4363 0,59.526 49.37686,110.2412 112.36149,110.2412 63.29096,0 112.45254,-50.9425 112.45254,-109.7989 0,-61.9049 -50.62464,-110.8786 -112.24442,-110.8786 z m -0.15609,48.0508 c 33.30186,0 60.21316,29.8329 60.21316,62.3855 0,30.1424 -25.52605,62.2294 -60.26519,62.2294 -33.86221,0 -59.99203,-31.2987 -59.99203,-62.0733 0,-35.0973 29.0749,-62.5416 60.04406,-62.5416 z"
       id="path3002"
       inkscape:connector-curvature="0" />
    <path
       style="fill:#3c1c00;fill-opacity:1;stroke:none"
       d="m -230.11375,1672.2829 14.985,-44.5387 91.99125,0 0,109.0575 c -18.26828,10.9079 -53.50114,21.6917 -88.77232,21.6917 -61.97758,0 -112.78195,-49.3534 -112.78195,-110.135 0,-63.9351 53.45722,-110.5502 112.67815,-110.5502 33.61366,0 63.44193,12.9183 82.65313,29.6098 l -30.77758,37.94 c -7.99687,-7.6621 -25.10875,-19.3333 -49.56594,-19.3333 -31.40847,0 -62.82676,21.7138 -62.82676,62.2299 0,35.3606 26.22604,62.2818 67.03079,62.2818 22.35079,0 29.91498,-7.451 29.91498,-7.451 l 0,-30.8025 z"
       id="path3006"
       inkscape:connector-curvature="0"
       sodipodi:nodetypes="ccccccccccccccc" />
    <path
       style="fill:#ff6308;fill-opacity:1;stroke:none"
       d="m -59.8675,1755.9492 0,-173.9925 -57.21829,0 9.76579,-39.1275 140.6925,0 0,39.1275 -52.86375,0 0,171.495 z"
       id="path3008"
       inkscape:connector-curvature="0" />
    <path
       style="fill:#ff6308;fill-opacity:1;stroke:none"
       d="m 55.85,1542.8292 43.519395,-4.8134 46.607555,132.271 51.51223,-132.3748 40.79458,4.9826 -92.35872,216.3254 z"
       id="path3010"
       inkscape:connector-curvature="0"
       sodipodi:nodetypes="ccccccc" />
    <path
       style="fill:#ff6308;fill-opacity:1;stroke:none"
       d="m -760,1437.1017 0,-563.60252 999,0 0,563.60252 -189.222463,0 c 0,0 2.127953,-12.9414 2.127953,-32.7841 0,-33.3908 -7.679937,-55.6786 -21.629557,-69.3807 -14.261016,-13.7021 -30.00034462,-15.2707 -39.4065956,-15.2707 -3.5711334,0 -7.0305874,0.4692 -7.0305874,0.4692 l -19.56375,-13.32 9.1575,-27.0562 c 24.0538804,-15.7526 32.8582755,-40.2381 32.8582755,-72.8425 0,-34.2789 -10.1134181,-72.9151 -22.3502525,-102.8331 0,0 14.1660282,8.8447 35.525522,8.8447 22.486824,0 34.47753,-10.122 42.210248,-23.9554 7.843315,-11.6318 17.891341,-17.3333 42.286377,-28.0875 6.64564,-3.4562 9.23846,-6.8369 9.23846,-10.9512 0,-3.8245 -1.93298,-9.5338 -4.04828,-15.311 C 91.620569,985.56911 49.15337,959.59969 3.6116656,952.76993 c -37.2092286,7.92202 -76.1067376,37.19852 -73.8768826,79.82227 -10.815994,-7.3163 -25.72875,-9.6685 -44.480283,-10.0558 -34.04895,0 -67.85181,9.0558 -103.07745,19.8498 -35.94567,12.7512 -63.39281,30.1355 -70.80667,46.7239 -10.21704,-19.4983 -32.27079,-38.8645 -69.17531,-38.8645 -17.8532,0 -34.04738,4.3597 -34.04738,4.3597 -32.62656,25.1145 -54.70417,62.1716 -54.70417,104.2701 0,7.5496 1.41691,19.0846 3.42549,27.9749 1.85101,7.9104 3.77921,11.3145 14.74003,11.3145 8.74242,0 16.95952,-1.7823 25.43173,-1.6608 11.12844,0 19.63026,2.2347 29.20725,7.6161 6.36369,3.4647 12.95078,5.7226 21.18911,5.7226 23.37556,0 45.33011,-21.6338 50.81156,-31.8156 8.66009,64.1679 33.01422,131.6456 78.71381,145.4383 l 27.05625,15.621 -17.06625,23.9228 c -34.54768,3.8525 -63.39283,29.088 -67.01625,74.0925 z"
       id="path3015"
       inkscape:connector-curvature="0"
       sodipodi:nodetypes="ccccccccccccccccccccccccccccccccccccc" />
    <path
       style="fill:#3c1c00;fill-opacity:1;stroke:none"
       d="m -213.0475,1363.0092 -9.99,-39.5438 196.47,-43.7062 10.40625,40.3762 z"
       id="path3017"
       inkscape:connector-curvature="0" />
  </g>
</svg>
